<?xml version="1.0" encoding="UTF-8"?>
<!DOCTYPE svg PUBLIC "-//W3C//DTD SVG 1.1//EN" "http://www.w3.org/Graphics/SVG/1.1/DTD/svg11.dtd">
<!-- Creator: CorelDRAW X8 -->
<svg xmlns="http://www.w3.org/2000/svg" xml:space="preserve" width="142.996mm" height="94.7449mm" version="1.1" style="shape-rendering:geometricPrecision; text-rendering:geometricPrecision; image-rendering:optimizeQuality; fill-rule:evenodd; clip-rule:evenodd"
viewBox="0 0 17297 11460"
 xmlns:xlink="http://www.w3.org/1999/xlink">
 <defs>
  <style type="text/css">
   <![CDATA[
    .fil0 {fill:black}
   ]]>
  </style>
 </defs>
 <g id="Слой_x0020_1">
  <metadata id="CorelCorpID_0Corel-Layer"/>
  <path class="fil0" d="M16728 5161l-14780 0 4208 -4187c111,-111 167,-256 167,-401 1,-146 -55,-293 -166,-404 -111,-112 -256,-168 -401,-169 -147,0 -294,55 -405,166l-5185 5160 1 1c-111,111 -167,257 -167,403 0,146 56,292 167,404l-1 1 5185 5158 1 0 -1 1c113,111 259,167 404,166 145,0 291,-56 402,-168l0 -2 1 1c111,-112 166,-258 165,-404 0,-145 -57,-289 -169,-401l-4206 -4187 14780 0c157,0 299,-63 402,-166 103,-104 167,-246 167,-403 0,-157 -64,-299 -167,-402 -102,-102 -243,-166 -399,-167l-3 0z"/>
 </g>
</svg>
