<?xml version="1.0" encoding="UTF-8"?>
<!DOCTYPE svg PUBLIC "-//W3C//DTD SVG 1.1//EN" "http://www.w3.org/Graphics/SVG/1.1/DTD/svg11.dtd">
<!-- Creator: CorelDRAW X8 -->
<svg xmlns="http://www.w3.org/2000/svg" xml:space="preserve" width="203.014mm" height="94.7464mm" version="1.1" style="shape-rendering:geometricPrecision; text-rendering:geometricPrecision; image-rendering:optimizeQuality; fill-rule:evenodd; clip-rule:evenodd"
viewBox="0 0 17299 8073"
 xmlns:xlink="http://www.w3.org/1999/xlink">
 <defs>
  <style type="text/css">
   <![CDATA[
    .fil0 {fill:black}
   ]]>
  </style>
 </defs>
 <g id="Слой_x0020_1">
  <metadata id="CorelCorpID_0Corel-Layer"/>
  <path class="fil0" d="M16898 3636l-15524 0 2963 -2949c79,-79 119,-181 119,-283 0,-103 -39,-207 -117,-285 -79,-79 -181,-119 -283,-119 -103,0 -207,39 -285,117l-3647 3630 -5 6 -1 1 -1 -1c-78,79 -117,181 -117,283 0,103 39,205 117,284l1 0 1 1 1 2c1197,1222 2437,2425 3651,3633 78,78 182,118 285,117 102,0 204,-40 283,-118 78,-79 117,-182 117,-285 0,-102 -40,-205 -119,-283l-2963 -2950 15524 0c111,0 211,-44 283,-117 73,-72 118,-173 118,-283 0,-111 -45,-211 -118,-284 -72,-72 -172,-117 -283,-117z"/>
 </g>
</svg>
